<svg xmlns="http://www.w3.org/2000/svg" width="372.28125" height="103.9999771118164" viewBox="0 0 186.140625 51.9999885559082" fill="#fff" style="font-size: 12pt;"><g transform="translate(2, 2)"><g transform="translate(0, 0)"><path stroke="#389438" fill="#59C059" fill-opacity="1" d="m 0,0 m 24,0 H 158.140625 a 24 24 0 0 1 0 48 H 24 a 24 24 0 0 1 0 -48 z"/><g transform="translate(138.140625,8)"><path stroke="#389438" fill="#FFFFFF" fill-opacity="1" d="m 0,0 m 16,0 H 24 a 16 16 0 0 1 0 32 H 16 a 16 16 0 0 1 0 -32 z"/><g transform="translate(8, 0) " fill="#575E75"><text x="12" y="18" dominant-baseline="middle" dy="0" text-anchor="middle"> </text></g></g><path d="M 16,0 h 16 a 16 16 0 0 1 0 32 h -16 a 16 16 0 0 1 0 -32 z" fill="#389438" transform="translate(4,4)"/><text y="2" text-anchor="middle" dominant-baseline="middle" dy="0" x="3.5859375" transform="translate(122.96875, 24) ">/</text><path d="" fill="#389438"/><g transform="translate(4,4)"><path stroke="#389438" fill="#59C059" fill-opacity="1" d="m 0,0 m 20,0 H 90.96875 a 20 20 0 0 1 0 40 H 20 a 20 20 0 0 1 0 -40 z"/><g transform="translate(66.96875,4)"><path stroke="#389438" fill="#FFFFFF" fill-opacity="1" d="m 0,0 m 16,0 H 24 a 16 16 0 0 1 0 32 H 16 a 16 16 0 0 1 0 -32 z"/><g transform="translate(8, 0) " fill="#575E75"><text x="12" y="18" dominant-baseline="middle" dy="0" text-anchor="middle"> </text></g></g><path d="M 16,0 h 16 a 16 16 0 0 1 0 32 h -16 a 16 16 0 0 1 0 -32 z" fill="#389438" transform="translate(4,4)"/><text y="2" text-anchor="middle" dominant-baseline="middle" dy="0" x="3.484375" transform="translate(52, 20) ">-</text><path d="" fill="#389438"/><g transform="translate(4,4)"><path stroke="#389438" fill="#FFFFFF" fill-opacity="1" d="m 0,0 m 16,0 H 24 a 16 16 0 0 1 0 32 H 16 a 16 16 0 0 1 0 -32 z"/><g transform="translate(8, 0) " fill="#575E75"><text x="12" y="18" dominant-baseline="middle" dy="0" text-anchor="middle"> </text></g></g></g></g></g></svg>