<svg xmlns="http://www.w3.org/2000/svg" width="298.5" height="120" viewBox="0 0 149.25 60" fill="#fff" style="font-size: 12pt;"><g transform="translate(2, 2)"><g transform="translate(0, 0)"><path stroke="#CF8B17" fill="#FFAB19" fill-opacity="1" d="m 0,4 A 4,4 0 0,1 4,0 H 12 c 2,0 3,1 4,2 l 4,4 c 1,1 2,2 4,2 h 12 c 2,0 3,-1 4,-2 l 4,-4 c 1,-1 2,-2 4,-2 H 141.25 a 4,4 0 0,1 4,4 v 40  a 4,4 0 0,1 -4,4 H 48   c -2,0 -3,1 -4,2 l -4,4 c -1,1 -2,2 -4,2 h -12 c -2,0 -3,-1 -4,-2 l -4,-4 c -1,-1 -2,-2 -4,-2 H 4 a 4,4 0 0,1 -4,-4 z"/><text y="2" text-anchor="middle" dominant-baseline="middle" dy="0" x="36.625" transform="translate(8, 24) ">wait until</text><path d="M 16,0  h 16 l 16,16 l -16,16 h -16 l -16,-16 l 16,-16 z" fill="#CF8B17" transform="translate(89.25,8)"/></g></g></svg>